<svg width="21" height="20" fill="none" xmlns="http://www.w3.org/2000/svg"><path fill-rule="evenodd" clip-rule="evenodd" d="M10.3 0h-4C2.5.3.5 2.3.2 6a70.2 70.2 0 000 8.2c.3 3.7 2.3 5.7 6 5.8a71.4 71.4 0 008.2 0c3.6-.1 5.6-2.1 5.8-5.8a70.2 70.2 0 000-8.2C20 2.2 18 .2 14.5 0L10.3 0zm0 1.8h4c2.8.2 4 1.5 4.2 4.2a69.5 69.5 0 010 8c-.1 2.7-1.4 4-4.1 4.1a69 69 0 01-8.1 0c-2.7 0-4-1.4-4.1-4a69.2 69.2 0 010-8.1c.1-2.7 1.4-4 4-4.1l4.1-.1zM5.2 10a5.1 5.1 0 1110.3 0 5.1 5.1 0 01-10.3 0zm5.1 3.3a3.3 3.3 0 110-6.6 3.3 3.3 0 010 6.6zm4.2-8.6a1.2 1.2 0 112.4 0 1.2 1.2 0 01-2.4 0z" fill="#fff"/></svg>