<svg width="139" height="20" fill="none" xmlns="http://www.w3.org/2000/svg"><path fill-rule="evenodd" clip-rule="evenodd" d="M91.3 15.8c3.5 0 6-2.5 6-6s-2.5-6-6-6c-1 0-2 .2-2.8.7V0h-3.9v15.5h2.9l.4-.9c.9.8 2 1.2 3.4 1.2zm-26.6 0c3 0 5-1.5 5-3.9 0-2.8-2.3-3.2-4-3.5h-.2c-1-.3-2-.4-2-1s.5-.9 1.1-.9c.7 0 1.2.4 1.2 1h3.7c0-2.2-2-3.8-4.8-3.8-3 0-4.9 1.5-4.9 3.8 0 2.7 2.4 3.3 4.1 3.6 1.1.1 2 .3 2 1 0 .6-.6.9-1.1.9-.8 0-1.4-.4-1.4-1.3h-3.7c0 2.5 1.9 4.1 5 4.1zm-21-4.2a6 6 0 01-6 4.2 6 6 0 01-6.1-6 6 6 0 016.2-6c3.6 0 6.2 2.5 6.2 5.9l-.1 1h-8.5c.3 1.3 1.1 2 2.4 2 .9 0 1.6-.4 2-1h4zm-8.2-3h4.6a2.3 2.3 0 00-2.3-1.8c-1.2 0-2 .6-2.3 1.8zM51 15.8c1.4 0 2.5-.4 3.5-1.1l.3.8h3V4H55l-.4.9c-1-.8-2.1-1.2-3.5-1.2-3.4 0-6 2.5-6 6s2.6 6 6 6zm-2-6c0 1.5 1.1 2.6 2.6 2.6 1.4 0 2.5-1.1 2.5-2.6s-1-2.6-2.5-2.6A2.5 2.5 0 0049 9.8zM78.7 15c-1.6 3.4-3 4.7-6 4.7h-1.2v-3.4h1c1.5 0 2-.4 2.5-1.8L70.3 4.1h4.3l2.4 6.3L79.2 4h4.2L78.7 15zm9.5-5.2c0 1.5 1.1 2.6 2.6 2.6 1.4 0 2.5-1.1 2.5-2.6s-1-2.6-2.5-2.6a2.5 2.5 0 00-2.6 2.6zm16.2 6c1.3 0 2.5-.4 3.4-1.1l.3.8h3V4h-2.9l-.4.9c-.9-.8-2-1.2-3.4-1.2-3.5 0-6 2.5-6 6s2.5 6 6 6zm-2-6c0 1.5 1 2.6 2.5 2.6s2.5-1.1 2.5-2.6-1-2.6-2.5-2.6a2.5 2.5 0 00-2.6 2.6zm15.1 5.7V9.4c0-1.4.7-2.3 2-2.3 1 0 1.5.7 1.5 2v6.4h3.9v-7c0-2.9-1.8-4.7-4.4-4.7-1.5 0-2.7.5-3.6 1.5l-.5-1.2h-2.8v11.4h4zm13.8-4.8v4.8h-4V0h4v8.6L134 4h4.4l-3.5 5.4 3.9 6H134l-2.8-4.8z" fill="#2D314D"/><path fill-rule="evenodd" clip-rule="evenodd" d="M10.8 0L0 19.7h6L16.8 0h-6z" fill="url(#paint0_linear)"/><path opacity=".5" fill-rule="evenodd" clip-rule="evenodd" d="M18.2 0L7.4 19.7h6L24.2 0h-6z" fill="url(#paint1_linear)"/><path opacity=".1" fill-rule="evenodd" clip-rule="evenodd" d="M25.5 0L14.7 19.7h6L31.5 0h-6z" fill="url(#paint2_linear)"/><defs><linearGradient id="paint0_linear" x1="5.1" y1="-7.4" x2="-10.2" y2="9.9" gradientUnits="userSpaceOnUse"><stop stop-color="#33D35E"/><stop offset="1" stop-color="#2AB6D9"/></linearGradient><linearGradient id="paint1_linear" x1="12.5" y1="-7.4" x2="-2.8" y2="9.9" gradientUnits="userSpaceOnUse"><stop stop-color="#33D35E"/><stop offset="1" stop-color="#2AB6D9"/></linearGradient><linearGradient id="paint2_linear" x1="19.9" y1="-7.4" x2="4.5" y2="9.9" gradientUnits="userSpaceOnUse"><stop stop-color="#33D35E"/><stop offset="1" stop-color="#2AB6D9"/></linearGradient></defs></svg>